<mxfile host="app.diagrams.net" modified="2022-01-28T03:38:23.057Z" agent="5.0 (Macintosh; Intel Mac OS X 10_15_7) AppleWebKit/537.36 (KHTML, like Gecko) Chrome/97.0.4692.99 Safari/537.36" etag="bylttEx46Drrsv4EC-Bt" version="16.4.5" type="github">
  <diagram id="kwOFzgkw-_hWnU-vj7TP" name="Page-1">
    <mxGraphModel dx="2380" dy="879" grid="1" gridSize="10" guides="1" tooltips="1" connect="1" arrows="1" fold="1" page="1" pageScale="1" pageWidth="850" pageHeight="1100" math="0" shadow="0">
      <root>
        <mxCell id="0" />
        <mxCell id="1" parent="0" />
        <mxCell id="RS1YW1xytb4FjU0digug-9" style="edgeStyle=orthogonalEdgeStyle;rounded=0;orthogonalLoop=1;jettySize=auto;html=1;exitX=0.5;exitY=1;exitDx=0;exitDy=0;entryX=0.5;entryY=0;entryDx=0;entryDy=0;" edge="1" parent="1" source="RS1YW1xytb4FjU0digug-1" target="RS1YW1xytb4FjU0digug-7">
          <mxGeometry relative="1" as="geometry" />
        </mxCell>
        <mxCell id="RS1YW1xytb4FjU0digug-34" style="edgeStyle=orthogonalEdgeStyle;rounded=0;orthogonalLoop=1;jettySize=auto;html=1;exitX=1;exitY=0.5;exitDx=0;exitDy=0;" edge="1" parent="1" source="RS1YW1xytb4FjU0digug-1" target="RS1YW1xytb4FjU0digug-8">
          <mxGeometry relative="1" as="geometry" />
        </mxCell>
        <mxCell id="RS1YW1xytb4FjU0digug-55" style="edgeStyle=orthogonalEdgeStyle;rounded=0;orthogonalLoop=1;jettySize=auto;html=1;exitX=0;exitY=0.75;exitDx=0;exitDy=0;entryX=0.5;entryY=1;entryDx=0;entryDy=0;" edge="1" parent="1" source="RS1YW1xytb4FjU0digug-1" target="RS1YW1xytb4FjU0digug-50">
          <mxGeometry relative="1" as="geometry" />
        </mxCell>
        <mxCell id="RS1YW1xytb4FjU0digug-57" style="edgeStyle=orthogonalEdgeStyle;rounded=0;orthogonalLoop=1;jettySize=auto;html=1;exitX=1;exitY=0.25;exitDx=0;exitDy=0;" edge="1" parent="1" source="RS1YW1xytb4FjU0digug-1" target="RS1YW1xytb4FjU0digug-56">
          <mxGeometry relative="1" as="geometry" />
        </mxCell>
        <mxCell id="RS1YW1xytb4FjU0digug-1" value="API Server" style="rounded=0;whiteSpace=wrap;html=1;" vertex="1" parent="1">
          <mxGeometry x="160" y="400" width="120" height="60" as="geometry" />
        </mxCell>
        <mxCell id="RS1YW1xytb4FjU0digug-42" style="edgeStyle=orthogonalEdgeStyle;rounded=0;orthogonalLoop=1;jettySize=auto;html=1;exitX=0.5;exitY=1;exitDx=0;exitDy=0;entryX=0.5;entryY=0;entryDx=0;entryDy=0;" edge="1" parent="1" source="RS1YW1xytb4FjU0digug-2" target="RS1YW1xytb4FjU0digug-38">
          <mxGeometry relative="1" as="geometry" />
        </mxCell>
        <mxCell id="RS1YW1xytb4FjU0digug-2" value="Schedule&lt;br&gt;Controller" style="rounded=0;whiteSpace=wrap;html=1;" vertex="1" parent="1">
          <mxGeometry y="600" width="120" height="60" as="geometry" />
        </mxCell>
        <mxCell id="RS1YW1xytb4FjU0digug-44" style="edgeStyle=orthogonalEdgeStyle;rounded=0;orthogonalLoop=1;jettySize=auto;html=1;exitX=0.5;exitY=1;exitDx=0;exitDy=0;" edge="1" parent="1" source="RS1YW1xytb4FjU0digug-3" target="RS1YW1xytb4FjU0digug-43">
          <mxGeometry relative="1" as="geometry" />
        </mxCell>
        <mxCell id="RS1YW1xytb4FjU0digug-3" value="AlgoJob&lt;br&gt;Controller" style="rounded=0;whiteSpace=wrap;html=1;" vertex="1" parent="1">
          <mxGeometry x="-160" y="600" width="120" height="60" as="geometry" />
        </mxCell>
        <mxCell id="RS1YW1xytb4FjU0digug-21" style="edgeStyle=orthogonalEdgeStyle;rounded=0;orthogonalLoop=1;jettySize=auto;html=1;exitX=0.5;exitY=1;exitDx=0;exitDy=0;" edge="1" parent="1" source="RS1YW1xytb4FjU0digug-4" target="RS1YW1xytb4FjU0digug-20">
          <mxGeometry relative="1" as="geometry" />
        </mxCell>
        <mxCell id="RS1YW1xytb4FjU0digug-4" value="Bill Manager" style="rounded=0;whiteSpace=wrap;html=1;" vertex="1" parent="1">
          <mxGeometry x="160" y="600" width="120" height="60" as="geometry" />
        </mxCell>
        <mxCell id="RS1YW1xytb4FjU0digug-35" style="edgeStyle=orthogonalEdgeStyle;rounded=0;orthogonalLoop=1;jettySize=auto;html=1;exitX=1;exitY=0.5;exitDx=0;exitDy=0;entryX=0;entryY=0.5;entryDx=0;entryDy=0;" edge="1" parent="1" source="RS1YW1xytb4FjU0digug-5" target="RS1YW1xytb4FjU0digug-7">
          <mxGeometry relative="1" as="geometry" />
        </mxCell>
        <mxCell id="RS1YW1xytb4FjU0digug-5" value="Archiver" style="rounded=0;whiteSpace=wrap;html=1;" vertex="1" parent="1">
          <mxGeometry y="480" width="120" height="60" as="geometry" />
        </mxCell>
        <mxCell id="RS1YW1xytb4FjU0digug-28" style="edgeStyle=orthogonalEdgeStyle;rounded=0;orthogonalLoop=1;jettySize=auto;html=1;exitX=0.5;exitY=1;exitDx=0;exitDy=0;" edge="1" parent="1" source="RS1YW1xytb4FjU0digug-6" target="RS1YW1xytb4FjU0digug-27">
          <mxGeometry relative="1" as="geometry" />
        </mxCell>
        <mxCell id="RS1YW1xytb4FjU0digug-6" value="Sms&lt;br&gt;Sender&lt;br&gt;(Flow Control)" style="rounded=0;whiteSpace=wrap;html=1;" vertex="1" parent="1">
          <mxGeometry x="480" y="600" width="120" height="60" as="geometry" />
        </mxCell>
        <mxCell id="RS1YW1xytb4FjU0digug-12" style="edgeStyle=orthogonalEdgeStyle;rounded=0;orthogonalLoop=1;jettySize=auto;html=1;exitX=0.5;exitY=1;exitDx=0;exitDy=0;entryX=0.5;entryY=0;entryDx=0;entryDy=0;" edge="1" parent="1" source="RS1YW1xytb4FjU0digug-7" target="RS1YW1xytb4FjU0digug-4">
          <mxGeometry relative="1" as="geometry" />
        </mxCell>
        <mxCell id="RS1YW1xytb4FjU0digug-24" style="edgeStyle=orthogonalEdgeStyle;rounded=0;orthogonalLoop=1;jettySize=auto;html=1;entryX=0.25;entryY=0;entryDx=0;entryDy=0;exitX=0.75;exitY=1;exitDx=0;exitDy=0;" edge="1" parent="1" source="RS1YW1xytb4FjU0digug-7" target="RS1YW1xytb4FjU0digug-6">
          <mxGeometry relative="1" as="geometry">
            <mxPoint x="280" y="440" as="sourcePoint" />
          </mxGeometry>
        </mxCell>
        <mxCell id="RS1YW1xytb4FjU0digug-25" style="edgeStyle=orthogonalEdgeStyle;rounded=0;orthogonalLoop=1;jettySize=auto;html=1;entryX=0.25;entryY=0;entryDx=0;entryDy=0;exitX=0.75;exitY=1;exitDx=0;exitDy=0;" edge="1" parent="1" source="RS1YW1xytb4FjU0digug-7" target="RS1YW1xytb4FjU0digug-23">
          <mxGeometry relative="1" as="geometry">
            <mxPoint x="280" y="420" as="sourcePoint" />
          </mxGeometry>
        </mxCell>
        <mxCell id="RS1YW1xytb4FjU0digug-36" style="edgeStyle=orthogonalEdgeStyle;rounded=0;orthogonalLoop=1;jettySize=auto;html=1;exitX=0.25;exitY=1;exitDx=0;exitDy=0;" edge="1" parent="1" source="RS1YW1xytb4FjU0digug-7" target="RS1YW1xytb4FjU0digug-2">
          <mxGeometry relative="1" as="geometry" />
        </mxCell>
        <mxCell id="RS1YW1xytb4FjU0digug-37" style="edgeStyle=orthogonalEdgeStyle;rounded=0;orthogonalLoop=1;jettySize=auto;html=1;exitX=0.25;exitY=1;exitDx=0;exitDy=0;" edge="1" parent="1" source="RS1YW1xytb4FjU0digug-7" target="RS1YW1xytb4FjU0digug-3">
          <mxGeometry relative="1" as="geometry" />
        </mxCell>
        <mxCell id="RS1YW1xytb4FjU0digug-60" style="edgeStyle=orthogonalEdgeStyle;rounded=0;orthogonalLoop=1;jettySize=auto;html=1;exitX=1;exitY=0.5;exitDx=0;exitDy=0;" edge="1" parent="1" source="RS1YW1xytb4FjU0digug-7" target="RS1YW1xytb4FjU0digug-59">
          <mxGeometry relative="1" as="geometry" />
        </mxCell>
        <mxCell id="RS1YW1xytb4FjU0digug-7" value="Hologres" style="rounded=1;whiteSpace=wrap;html=1;" vertex="1" parent="1">
          <mxGeometry x="160" y="480" width="120" height="60" as="geometry" />
        </mxCell>
        <mxCell id="RS1YW1xytb4FjU0digug-22" style="edgeStyle=orthogonalEdgeStyle;rounded=0;orthogonalLoop=1;jettySize=auto;html=1;exitX=0.5;exitY=1;exitDx=0;exitDy=0;" edge="1" parent="1" source="RS1YW1xytb4FjU0digug-8" target="RS1YW1xytb4FjU0digug-6">
          <mxGeometry relative="1" as="geometry" />
        </mxCell>
        <mxCell id="RS1YW1xytb4FjU0digug-8" value="Kafka" style="rounded=1;whiteSpace=wrap;html=1;" vertex="1" parent="1">
          <mxGeometry x="480" y="480" width="120" height="60" as="geometry" />
        </mxCell>
        <mxCell id="RS1YW1xytb4FjU0digug-19" style="edgeStyle=orthogonalEdgeStyle;rounded=0;orthogonalLoop=1;jettySize=auto;html=1;exitX=0.5;exitY=1;exitDx=0;exitDy=0;" edge="1" parent="1" source="RS1YW1xytb4FjU0digug-14" target="RS1YW1xytb4FjU0digug-1">
          <mxGeometry relative="1" as="geometry" />
        </mxCell>
        <mxCell id="RS1YW1xytb4FjU0digug-14" value="OpenAPI POP" style="rounded=1;whiteSpace=wrap;html=1;" vertex="1" parent="1">
          <mxGeometry x="160" y="300" width="120" height="60" as="geometry" />
        </mxCell>
        <mxCell id="RS1YW1xytb4FjU0digug-18" style="edgeStyle=orthogonalEdgeStyle;rounded=0;orthogonalLoop=1;jettySize=auto;html=1;exitX=0.5;exitY=1;exitDx=0;exitDy=0;" edge="1" parent="1" source="RS1YW1xytb4FjU0digug-16" target="RS1YW1xytb4FjU0digug-14">
          <mxGeometry relative="1" as="geometry" />
        </mxCell>
        <mxCell id="RS1YW1xytb4FjU0digug-16" value="Viper&lt;br&gt;OneConsole" style="rounded=1;whiteSpace=wrap;html=1;" vertex="1" parent="1">
          <mxGeometry x="160" y="200" width="120" height="60" as="geometry" />
        </mxCell>
        <mxCell id="RS1YW1xytb4FjU0digug-20" value="OMS" style="rounded=1;whiteSpace=wrap;html=1;" vertex="1" parent="1">
          <mxGeometry x="160" y="720" width="120" height="60" as="geometry" />
        </mxCell>
        <mxCell id="RS1YW1xytb4FjU0digug-26" style="edgeStyle=orthogonalEdgeStyle;rounded=0;orthogonalLoop=1;jettySize=auto;html=1;exitX=0.5;exitY=0;exitDx=0;exitDy=0;entryX=1;entryY=0.5;entryDx=0;entryDy=0;" edge="1" parent="1" source="RS1YW1xytb4FjU0digug-23" target="RS1YW1xytb4FjU0digug-8">
          <mxGeometry relative="1" as="geometry" />
        </mxCell>
        <mxCell id="RS1YW1xytb4FjU0digug-23" value="Sms&lt;br&gt;Resender" style="rounded=0;whiteSpace=wrap;html=1;" vertex="1" parent="1">
          <mxGeometry x="640" y="600" width="120" height="60" as="geometry" />
        </mxCell>
        <mxCell id="RS1YW1xytb4FjU0digug-58" style="edgeStyle=orthogonalEdgeStyle;rounded=0;orthogonalLoop=1;jettySize=auto;html=1;exitX=0;exitY=0.5;exitDx=0;exitDy=0;entryX=1;entryY=0.5;entryDx=0;entryDy=0;" edge="1" parent="1" source="RS1YW1xytb4FjU0digug-27" target="RS1YW1xytb4FjU0digug-30">
          <mxGeometry relative="1" as="geometry" />
        </mxCell>
        <mxCell id="RS1YW1xytb4FjU0digug-27" value="SMS" style="rounded=1;whiteSpace=wrap;html=1;" vertex="1" parent="1">
          <mxGeometry x="480" y="720" width="120" height="60" as="geometry" />
        </mxCell>
        <mxCell id="RS1YW1xytb4FjU0digug-33" style="edgeStyle=orthogonalEdgeStyle;rounded=0;orthogonalLoop=1;jettySize=auto;html=1;exitX=0.5;exitY=0;exitDx=0;exitDy=0;entryX=0.75;entryY=1;entryDx=0;entryDy=0;" edge="1" parent="1" source="RS1YW1xytb4FjU0digug-29" target="RS1YW1xytb4FjU0digug-7">
          <mxGeometry relative="1" as="geometry" />
        </mxCell>
        <mxCell id="RS1YW1xytb4FjU0digug-29" value="Sms&lt;br&gt;Receiver" style="rounded=0;whiteSpace=wrap;html=1;" vertex="1" parent="1">
          <mxGeometry x="320" y="600" width="120" height="60" as="geometry" />
        </mxCell>
        <mxCell id="RS1YW1xytb4FjU0digug-32" style="edgeStyle=orthogonalEdgeStyle;rounded=0;orthogonalLoop=1;jettySize=auto;html=1;exitX=0.5;exitY=0;exitDx=0;exitDy=0;entryX=0.5;entryY=1;entryDx=0;entryDy=0;" edge="1" parent="1" source="RS1YW1xytb4FjU0digug-30" target="RS1YW1xytb4FjU0digug-29">
          <mxGeometry relative="1" as="geometry" />
        </mxCell>
        <mxCell id="RS1YW1xytb4FjU0digug-30" value="SMS&lt;br&gt;MNS Queue" style="rounded=1;whiteSpace=wrap;html=1;" vertex="1" parent="1">
          <mxGeometry x="320" y="720" width="120" height="60" as="geometry" />
        </mxCell>
        <mxCell id="RS1YW1xytb4FjU0digug-41" style="edgeStyle=orthogonalEdgeStyle;rounded=0;orthogonalLoop=1;jettySize=auto;html=1;exitX=0.5;exitY=1;exitDx=0;exitDy=0;" edge="1" parent="1" source="RS1YW1xytb4FjU0digug-38" target="RS1YW1xytb4FjU0digug-40">
          <mxGeometry relative="1" as="geometry" />
        </mxCell>
        <mxCell id="RS1YW1xytb4FjU0digug-48" style="edgeStyle=orthogonalEdgeStyle;rounded=0;orthogonalLoop=1;jettySize=auto;html=1;exitX=1;exitY=0.5;exitDx=0;exitDy=0;entryX=0;entryY=0.5;entryDx=0;entryDy=0;" edge="1" parent="1" source="RS1YW1xytb4FjU0digug-38" target="RS1YW1xytb4FjU0digug-1">
          <mxGeometry relative="1" as="geometry" />
        </mxCell>
        <mxCell id="RS1YW1xytb4FjU0digug-38" value="Schedule" style="rounded=0;whiteSpace=wrap;html=1;" vertex="1" parent="1">
          <mxGeometry y="720" width="120" height="60" as="geometry" />
        </mxCell>
        <mxCell id="RS1YW1xytb4FjU0digug-39" value="MaxCompute" style="rounded=1;whiteSpace=wrap;html=1;" vertex="1" parent="1">
          <mxGeometry x="-160" y="840" width="120" height="60" as="geometry" />
        </mxCell>
        <mxCell id="RS1YW1xytb4FjU0digug-40" value="Dataworks Tenant" style="rounded=1;whiteSpace=wrap;html=1;" vertex="1" parent="1">
          <mxGeometry y="840" width="120" height="60" as="geometry" />
        </mxCell>
        <mxCell id="RS1YW1xytb4FjU0digug-45" style="edgeStyle=orthogonalEdgeStyle;rounded=0;orthogonalLoop=1;jettySize=auto;html=1;exitX=0.5;exitY=1;exitDx=0;exitDy=0;" edge="1" parent="1" source="RS1YW1xytb4FjU0digug-43" target="RS1YW1xytb4FjU0digug-39">
          <mxGeometry relative="1" as="geometry" />
        </mxCell>
        <mxCell id="RS1YW1xytb4FjU0digug-46" style="edgeStyle=orthogonalEdgeStyle;rounded=0;orthogonalLoop=1;jettySize=auto;html=1;exitX=0.5;exitY=1;exitDx=0;exitDy=0;entryX=0.5;entryY=0;entryDx=0;entryDy=0;" edge="1" parent="1" source="RS1YW1xytb4FjU0digug-43" target="RS1YW1xytb4FjU0digug-40">
          <mxGeometry relative="1" as="geometry" />
        </mxCell>
        <mxCell id="RS1YW1xytb4FjU0digug-43" value="AlgoJob" style="rounded=0;whiteSpace=wrap;html=1;" vertex="1" parent="1">
          <mxGeometry x="-160" y="720" width="120" height="60" as="geometry" />
        </mxCell>
        <mxCell id="RS1YW1xytb4FjU0digug-50" value="Phoenix" style="rounded=1;whiteSpace=wrap;html=1;" vertex="1" parent="1">
          <mxGeometry x="-160" y="200" width="120" height="60" as="geometry" />
        </mxCell>
        <mxCell id="RS1YW1xytb4FjU0digug-53" style="edgeStyle=orthogonalEdgeStyle;rounded=0;orthogonalLoop=1;jettySize=auto;html=1;exitX=0.5;exitY=1;exitDx=0;exitDy=0;" edge="1" parent="1" source="RS1YW1xytb4FjU0digug-51" target="RS1YW1xytb4FjU0digug-52">
          <mxGeometry relative="1" as="geometry" />
        </mxCell>
        <mxCell id="RS1YW1xytb4FjU0digug-51" value="SPI" style="rounded=1;whiteSpace=wrap;html=1;" vertex="1" parent="1">
          <mxGeometry y="200" width="120" height="60" as="geometry" />
        </mxCell>
        <mxCell id="RS1YW1xytb4FjU0digug-54" style="edgeStyle=orthogonalEdgeStyle;rounded=0;orthogonalLoop=1;jettySize=auto;html=1;exitX=0.5;exitY=1;exitDx=0;exitDy=0;entryX=0;entryY=0.25;entryDx=0;entryDy=0;" edge="1" parent="1" source="RS1YW1xytb4FjU0digug-52" target="RS1YW1xytb4FjU0digug-1">
          <mxGeometry relative="1" as="geometry" />
        </mxCell>
        <mxCell id="RS1YW1xytb4FjU0digug-52" value="InnerAPI POP" style="rounded=1;whiteSpace=wrap;html=1;" vertex="1" parent="1">
          <mxGeometry y="300" width="120" height="60" as="geometry" />
        </mxCell>
        <mxCell id="RS1YW1xytb4FjU0digug-56" value="STS" style="rounded=1;whiteSpace=wrap;html=1;" vertex="1" parent="1">
          <mxGeometry x="320" y="200" width="120" height="60" as="geometry" />
        </mxCell>
        <mxCell id="RS1YW1xytb4FjU0digug-59" value="Sms&lt;br&gt;Callback" style="rounded=0;whiteSpace=wrap;html=1;" vertex="1" parent="1">
          <mxGeometry x="320" y="480" width="120" height="60" as="geometry" />
        </mxCell>
      </root>
    </mxGraphModel>
  </diagram>
</mxfile>
